<svg version="1.1" xmlns="http://www.w3.org/2000/svg" viewBox="0 0 1328.815442188382 625.9733659144551" width="1328.815442188382" height="625.9733659144551" filter="invert(93%) hue-rotate(180deg)">
  <!-- svg-source:excalidraw -->
  
  <defs>
    <style class="style-fonts">
      @font-face {
        font-family: "Virgil";
        src: url("https://excalidraw.com/Virgil.woff2");
      }
      @font-face {
        font-family: "Cascadia";
        src: url("https://excalidraw.com/Cascadia.woff2");
      }
    </style>
  </defs>
  <rect x="0" y="0" width="1328.815442188382" height="625.9733659144551" fill="transparent"/><g stroke-linecap="round"><g transform="translate(55.89136534026022 322.3114734169815) rotate(0 631.4620384240609 -114.23187496335885)"><path d="M0 0 C41.84 -18.96, 146.43 -113.74, 251.02 -113.74 C355.61 -113.74, 507.42 19.12, 627.54 0 C747.65 -19.12, 865.81 -219.15, 971.71 -228.46 C1077.6 -237.78, 1214.39 -84.65, 1262.92 -55.89 M0 0 C41.84 -18.96, 146.43 -113.74, 251.02 -113.74 C355.61 -113.74, 507.42 19.12, 627.54 0 C747.65 -19.12, 865.81 -219.15, 971.71 -228.46 C1077.6 -237.78, 1214.39 -84.65, 1262.92 -55.89" stroke="#1864ab" stroke-width="4" fill="none"/></g></g><g stroke-linecap="round"><g transform="translate(54.28593991652042 10.808619734793922) rotate(0 0 302.346118122156)"><path d="M-0.49 0.16 C-0.75 100.93, -1.21 503.29, -1.11 603.99 M1.46 -0.81 C1.51 100.17, 1.36 504.11, 1.02 605.16" stroke="#000000" stroke-width="2" fill="none"/></g></g><g stroke-linecap="round"><g transform="translate(1307.2859399165213 566.5008559791058) rotate(0 -648 0)"><path d="M0.55 -1.03 C-215.67 -1.38, -1080.09 -1.06, -1296.22 -1.01 M-0.62 1.04 C-217.11 1.33, -1081.2 0.14, -1297.29 -0.01" stroke="#000000" stroke-width="2" fill="none"/></g></g><g stroke-linecap="round"><g transform="translate(131.52889262374504 243.66805566446857) rotate(0 18.324679864663267 18.324679864663242)"><path d="M0 0 C6.11 6.11, 30.54 30.54, 36.65 36.65 M0 0 C6.11 6.11, 30.54 30.54, 36.65 36.65" stroke="#862e9c" stroke-width="4" fill="none"/></g></g><g stroke-linecap="round"><g transform="translate(129.92146456544106 280.63890100545575) rotate(0 19.61062231130626 -19.61062231130626)"><path d="M0 0 C6.54 -6.54, 32.68 -32.68, 39.22 -39.22 M0 0 C6.54 -6.54, 32.68 -32.68, 39.22 -39.22" stroke="#862e9c" stroke-width="4" fill="none"/></g></g><g stroke-linecap="round"><g transform="translate(257.52714097388775 194.15123432842023) rotate(0 18.32467986466324 18.32467986466324)"><path d="M0 0 C6.11 6.11, 30.54 30.54, 36.65 36.65 M0 0 C6.11 6.11, 30.54 30.54, 36.65 36.65" stroke="#862e9c" stroke-width="4" fill="none"/></g></g><g stroke-linecap="round"><g transform="translate(255.9197129155839 231.1220796694074) rotate(0 19.610622311306287 -19.61062231130626)"><path d="M0 0 C6.54 -6.54, 32.68 -32.68, 39.22 -39.22 M0 0 C6.54 -6.54, 32.68 -32.68, 39.22 -39.22" stroke="#862e9c" stroke-width="4" fill="none"/></g></g><g stroke-linecap="round"><g transform="translate(406.5678705398152 226.50876114207557) rotate(0 18.32467986466324 18.32467986466324)"><path d="M0 0 C6.11 6.11, 30.54 30.54, 36.65 36.65 M0 0 C6.11 6.11, 30.54 30.54, 36.65 36.65" stroke="#862e9c" stroke-width="4" fill="none"/></g></g><g stroke-linecap="round"><g transform="translate(404.9604424815111 263.47960648306275) rotate(0 19.610622311306287 -19.61062231130626)"><path d="M0 0 C6.54 -6.54, 32.68 -32.68, 39.22 -39.22 M0 0 C6.54 -6.54, 32.68 -32.68, 39.22 -39.22" stroke="#862e9c" stroke-width="4" fill="none"/></g></g><g stroke-linecap="round"><g transform="translate(530.1147911010444 279.45744138260244) rotate(0 18.32467986466324 18.324679864663242)"><path d="M0 0 C6.11 6.11, 30.54 30.54, 36.65 36.65 M0 0 C6.11 6.11, 30.54 30.54, 36.65 36.65" stroke="#862e9c" stroke-width="4" fill="none"/></g></g><g stroke-linecap="round"><g transform="translate(528.5073630427403 316.4282867235896) rotate(0 19.610622311306287 -19.61062231130626)"><path d="M0 0 C6.54 -6.54, 32.68 -32.68, 39.22 -39.22 M0 0 C6.54 -6.54, 32.68 -32.68, 39.22 -39.22" stroke="#862e9c" stroke-width="4" fill="none"/></g></g><g stroke-linecap="round"><g transform="translate(665.4280850490575 302.99018815616995) rotate(0 18.324679864663242 18.324679864663242)"><path d="M0 0 C6.11 6.11, 30.54 30.54, 36.65 36.65 M0 0 C6.11 6.11, 30.54 30.54, 36.65 36.65" stroke="#862e9c" stroke-width="4" fill="none"/></g></g><g stroke-linecap="round"><g transform="translate(663.8206569907534 339.96103349715713) rotate(0 19.61062231130628 -19.61062231130626)"><path d="M0 0 C6.54 -6.54, 32.68 -32.68, 39.22 -39.22 M0 0 C6.54 -6.54, 32.68 -32.68, 39.22 -39.22" stroke="#862e9c" stroke-width="4" fill="none"/></g></g><g stroke-linecap="round"><g transform="translate(771.325445530111 249.06097680007787) rotate(0 18.32467986466324 18.324679864663242)"><path d="M0 0 C6.11 6.11, 30.54 30.54, 36.65 36.65 M0 0 C6.11 6.11, 30.54 30.54, 36.65 36.65" stroke="#862e9c" stroke-width="4" fill="none"/></g></g><g stroke-linecap="round"><g transform="translate(769.7180174718069 286.03182214106505) rotate(0 19.61062231130628 -19.61062231130626)"><path d="M0 0 C6.54 -6.54, 32.68 -32.68, 39.22 -39.22 M0 0 C6.54 -6.54, 32.68 -32.68, 39.22 -39.22" stroke="#862e9c" stroke-width="4" fill="none"/></g></g><g stroke-linecap="round"><g transform="translate(866.4369637399463 167.67689420815697) rotate(0 18.32467986466324 18.32467986466324)"><path d="M0 0 C6.11 6.11, 30.54 30.54, 36.65 36.65 M0 0 C6.11 6.11, 30.54 30.54, 36.65 36.65" stroke="#862e9c" stroke-width="4" fill="none"/></g></g><g stroke-linecap="round"><g transform="translate(864.8295356816423 204.64773954914415) rotate(0 19.610622311306287 -19.61062231130626)"><path d="M0 0 C6.54 -6.54, 32.68 -32.68, 39.22 -39.22 M0 0 C6.54 -6.54, 32.68 -32.68, 39.22 -39.22" stroke="#862e9c" stroke-width="4" fill="none"/></g></g><g stroke-linecap="round"><g transform="translate(964.4900752964775 91.1954671940627) rotate(0 18.32467986466324 18.32467986466324)"><path d="M0 0 C6.11 6.11, 30.54 30.54, 36.65 36.65 M0 0 C6.11 6.11, 30.54 30.54, 36.65 36.65" stroke="#862e9c" stroke-width="4" fill="none"/></g></g><g stroke-linecap="round"><g transform="translate(962.8826472381734 128.16631253504988) rotate(0 19.610622311306287 -19.61062231130626)"><path d="M0 0 C6.54 -6.54, 32.68 -32.68, 39.22 -39.22 M0 0 C6.54 -6.54, 32.68 -32.68, 39.22 -39.22" stroke="#862e9c" stroke-width="4" fill="none"/></g></g><g stroke-linecap="round"><g transform="translate(1097.84230701336 100.02024723415042) rotate(0 18.32467986466324 18.32467986466324)"><path d="M0 0 C6.11 6.11, 30.54 30.54, 36.65 36.65 M0 0 C6.11 6.11, 30.54 30.54, 36.65 36.65" stroke="#862e9c" stroke-width="4" fill="none"/></g></g><g stroke-linecap="round"><g transform="translate(1096.2348789550558 136.9910925751376) rotate(0 19.610622311306287 -19.61062231130626)"><path d="M0 0 C6.54 -6.54, 32.68 -32.68, 39.22 -39.22 M0 0 C6.54 -6.54, 32.68 -32.68, 39.22 -39.22" stroke="#862e9c" stroke-width="4" fill="none"/></g></g><g stroke-linecap="round"><g transform="translate(1218.4476342278933 182.38486094163653) rotate(0 18.32467986466324 18.32467986466324)"><path d="M0 0 C6.11 6.11, 30.54 30.54, 36.65 36.65 M0 0 C6.11 6.11, 30.54 30.54, 36.65 36.65" stroke="#862e9c" stroke-width="4" fill="none"/></g></g><g stroke-linecap="round"><g transform="translate(1216.8402061695892 219.35570628262371) rotate(0 19.610622311306287 -19.61062231130626)"><path d="M0 0 C6.54 -6.54, 32.68 -32.68, 39.22 -39.22 M0 0 C6.54 -6.54, 32.68 -32.68, 39.22 -39.22" stroke="#862e9c" stroke-width="4" fill="none"/></g></g><g stroke-linecap="round"><g transform="translate(941.850500287275 184.8097058032912) rotate(0 -211.05829175327983 112.46806906932326)"><path d="M0 0 C-70.35 37.49, -351.76 187.45, -422.12 224.94 M0 0 C-70.35 37.49, -351.76 187.45, -422.12 224.94" stroke="#e67700" stroke-width="4" fill="none"/></g></g></svg>